# xmcd
#
# Track frame offsets: 
#        150
#        34343
#        49491
#        76920
#        93009
#        115584
#        137106
#        155924
#        177767
#        196113
#        220332
#        237124
#        265724
#        283115
#        298319
#        316985
#        337128
#
# Disc length: 4712 seconds
#
# Revision: 0
# Processed by: cddbd v1.5.2PL0 Copyright (c) Steve Scherf et al.
# Submitted via: ExactAudioCopy v0.99pb5
#
DISCID=fe126611
DTITLE=The Rolling Stones  - Girls, Pills and Powders - CD 3
DYEAR=1900
DGENRE=
TTITLE0=Claudine 2
TTITLE1=Fiji Jim take 2
TTITLE2=A Different Kind
TTITLE3=I need You
TTITLE4=Everlasting Is My Love take 3
TTITLE5=Never Make Me Cry take 2
TTITLE6=I Can't Help It take 4
TTITLE7=Some People Tell Me
TTITLE8=Everlasting Is My Love take 1
TTITLE9=Disco Music
TTITLE10=Start Me Up take 2
TTITLE11=Hang Fire a.k.a.Lazy Bitch
TTITLE12=Shame Shame Shame
TTITLE13=Do You Think I Really Care a.k.a.Yello Cab take 1
TTITLE14=Black Limousine take 2
TTITLE15=Biscuit Blues
TTITLE16=It's All Wrong
EXTD=
EXTT0=
EXTT1=
EXTT2=
EXTT3=
EXTT4=
EXTT5=
EXTT6=
EXTT7=
EXTT8=
EXTT9=
EXTT10=
EXTT11=
EXTT12=
EXTT13=
EXTT14=
EXTT15=
EXTT16=
PLAYORDER=
